<?xml version="1.0" encoding="UTF-8"?>
<!-- Created with Inkscape (http://www.inkscape.org/) -->
<svg width="433" height="433" version="1.1" viewBox="0 0 433 433" xml:space="preserve" xmlns="http://www.w3.org/2000/svg"><path d="m210.97 180.98c-16.846-25.271-57.283-45.492-84.242-57.28-8.4268-5.0563 3.3721-15.168 8.4286-18.535 37.061-30.328 111.19-43.806 126.35 15.164 3.3705 20.219-1.6859 42.12-25.273 65.706-6.7424-3.365-16.85-5.0562-25.278-5.0562zm6.7424 72.448c18.536 38.755 45.488 57.285 72.447 58.971 74.128 8.4265 106.15-79.185 80.876-141.52-3.3705-11.794-10.108-21.901-18.536-26.957-10.108-8.4225-23.587-8.4225-33.695 3.3703-15.165 16.85-40.438 42.122-62.341 50.543 25.273-28.642 32.01-57.28 26.954-82.556-18.531-70.762-111.19-72.448-161.74-28.642-18.536 13.479-33.696 47.173-5.0567 57.285 21.901 10.107 60.654 28.642 74.128 48.862l-1.686 1.6858c-64.019-18.535-124.68 15.163-114.58 82.555 5.0562 35.385 28.644 69.078 75.819 87.613 20.221 8.4278 57.283 5.0575 52.231-25.271-1.6846-25.275-5.0565-62.341 6.7424-87.617 3.3665 0 5.0565 1.6898 8.423 1.6898zm35.381-30.328c30.33-6.7366 60.654-38.75 82.556-60.65 6.7424-6.742 13.479 10.107 15.165 15.163 18.535 47.178-1.686 117.95-58.969 112.88-18.536-1.6845-38.753-15.163-52.232-45.491 6.7424-5.0575 11.799-13.479 13.479-21.906zm-21.901-6.7366c0 8.4278-6.7424 13.479-13.479 13.479-8.4284 0-13.479-5.0562-13.479-13.479 0-6.742 5.0565-13.479 13.479-13.479 6.7371 0 13.479 6.742 13.479 13.479zm-42.124 23.586c-13.479 28.648-15.164 77.5-8.427 104.47-1.6859 3.3703-18.536 0-20.217-1.6858-32.015-11.798-58.969-33.699-64.026-67.392-6.7371-52.234 38.758-72.449 84.247-60.657 0 10.114 3.3705 18.535 8.427 25.277zm28.645 193.75c119.62 0 215.65-97.72 215.65-217.34 0-119.62-96.034-215.66-215.65-215.66-119.63 0-217.35 96.034-217.35 215.66 0 119.63 97.722 217.34 217.35 217.34zm0-21.905c-107.83 0-195.43-87.613-195.43-195.43 0-106.15 87.613-193.75 195.43-193.75 106.15 0 193.75 87.613 193.75 193.75 0 107.83-87.613 195.43-193.75 195.43z" fill="#0097e6" stroke-width=".13359"/></svg>
