<?xml version="1.0" encoding="UTF-8"?>
<!-- Created with Inkscape (http://www.inkscape.org/) -->
<svg width="100" height="100" version="1.1" viewBox="0 0 90.667 90.667" xml:space="preserve" xmlns="http://www.w3.org/2000/svg">
<path d="m36.036 32.493c-0.9671-0.97765-2.5465-0.97765-3.513 0l-6.8287 6.8772c-0.97778 0.96724-0.97778 2.5465 0 3.5132 0.96656 0.9767 2.5449 0.9767 3.5116 0l2.6732-2.6733v16.232c0 1.3834 1.0887 2.4721 2.472 2.4721 1.3887 0 2.4774-1.0887 2.4774-2.4721v-16.232l2.6732 2.6733c0.45434 0.46962 1.0776 0.73317 1.7268 0.74372 0.64487 0 1.2888-0.24718 1.7319-0.74372 0.99414-0.98833 0.99414-2.5259 0-3.5132zm33.446 21.477h-19.442c-1.3844 0-2.4731 1.087-2.4731 2.4714 0 1.3834 1.0887 2.4721 2.4731 2.4721h19.442c1.3897 0 2.4783-1.0887 2.4783-2.4721 0-1.3844-1.0887-2.4714-2.4783-2.4714zm-19.442-6.1378h14.498c1.3849 0 2.472-1.0885 2.472-2.472 0-1.3897-1.087-2.4772-2.472-2.4772h-14.498c-1.3844 0-2.4731 1.0876-2.4731 2.4772 0 1.3834 1.0887 2.472 2.4731 2.472zm0-11.083h9.5965c1.3902 0 2.4772-1.0872 2.4772-2.4774 0-1.3833-1.087-2.4714-2.4772-2.4714h-9.5965c-1.3844 0-2.4731 1.0881-2.4731 2.4714 0 1.3902 1.0887 2.4774 2.4731 2.4774z" fill="#f5f6fa" stroke-width=".13522"/>
<circle style="fill: none; stroke: white; stroke-width: 6" cx="45.4" cy="45.4" r="41.1"/>
</svg>
